<?xml version="1.0" standalone="no"?>
<!DOCTYPE svg PUBLIC "-//W3C//DTD SVG 20010904//EN"
 "http://www.w3.org/TR/2001/REC-SVG-20010904/DTD/svg10.dtd">
<svg version="1.0" xmlns="http://www.w3.org/2000/svg"
 width="300.000000pt" height="338.000000pt" viewBox="0 0 300.000000 338.000000"
 preserveAspectRatio="xMidYMid meet">
<metadata>
Created by potrace 1.10, written by Peter Selinger 2001-2011
</metadata>
<g transform="translate(0.000000,338.000000) scale(0.100000,-0.100000)"
fill="#000000" stroke="none">
<path d="M10 2474 l0 -903 220 2 c190 2 220 0 220 -13 0 -8 0 -279 0 -602 l-1
-588 973 0 973 0 0 60 0 60 -902 0 c-507 0 -903 -4 -903 -9 0 -5 18 -11 40
-15 22 -3 423 -6 892 -6 468 0 853 -1 855 -4 3 -2 -1 -14 -7 -26 -9 -16 -20
-21 -53 -20 -23 1 -405 1 -849 1 -444 -1 -813 1 -820 3 -37 12 -78 15 -73 6 4
-6 -12 -10 -38 -10 -35 0 -46 4 -50 19 -7 28 4 71 18 71 10 0 11 9 5 34 -4 19
-7 564 -7 1211 0 897 3 1178 13 1185 40 34 39 51 36 -1118 -3 -1078 0 -1302
18 -1302 5 0 9 546 9 1224 l1 1224 -65 4 -65 3 0 -650 c0 -357 0 -667 0 -688
0 -34 -2 -37 -19 -27 -11 5 -76 10 -145 10 -77 0 -126 4 -126 10 0 6 -5 10
-11 10 -5 0 -7 -4 -4 -10 3 -5 1 -10 -4 -10 -6 0 -11 5 -11 12 0 9 -3 9 -12 0
-7 -7 -27 -12 -46 -12 l-33 0 3 65 c2 36 5 65 8 65 3 0 3 327 1 727 -5 998 -3
901 -23 907 -17 4 -18 -44 -18 -900z m480 -841 c0 -35 -4 -53 -9 -47 -9 8 -3
104 5 104 2 0 4 -26 4 -57z"/>
<path d="M155 3298 c-65 -18 -60 42 -55 -795 3 -419 8 -765 13 -769 4 -4 7
340 7 764 l0 772 1385 0 1385 0 0 -660 0 -660 55 0 c30 0 55 4 55 8 0 15 -24
32 -46 32 -16 0 -24 7 -26 23 -2 12 0 137 4 277 3 140 4 417 1 615 -4 339 -6
361 -24 381 l-20 21 -1352 0 c-744 0 -1365 -4 -1382 -9z"/>
<path d="M150 1685 c52 -20 254 -20 270 0 11 13 -6 15 -146 14 -145 0 -156 -2
-124 -14z"/>
<path d="M870 1613 l0 -58 1005 3 1005 2 0 -725 0 -725 -22 0 c-21 -1 -21 -2
-5 -11 10 -6 30 -9 45 -7 l27 3 3 737 c2 660 0 738 -14 752 -14 14 -117 16
-1009 16 l-993 0 -6 35 c-4 21 -13 35 -21 35 -11 0 -15 -14 -15 -57z"/>
<path d="M1402 1663 c262 -2 694 -2 960 0 266 1 51 2 -477 2 -528 0 -745 -1
-483 -2z"/>
<path d="M2883 1663 c20 -2 54 -2 75 0 20 2 3 4 -38 4 -41 0 -58 -2 -37 -4z"/>
<path d="M10 635 l0 -625 1474 0 c811 0 1483 -3 1493 -6 11 -3 7 4 -12 20
l-30 26 -1442 0 -1443 0 0 574 c0 315 -3 588 -6 605 -4 17 -13 31 -20 31 -12
0 -14 -101 -14 -625z"/>
</g>
</svg>
